<svg width="119" height="52" viewBox="0 0 119 52" fill="none" xmlns="http://www.w3.org/2000/svg">
<path d="M42.2632 0.0526123L27.4829 42.1053H14.7802L0 0.0526123H10.8032L21.1316 31.8018L31.5193 0.0526123H42.2632Z" fill="white"/>
<path d="M72.445 34.6772H56.8931L54.4001 42.1053H43.7749L58.852 0.0526123H70.6049L85.6819 42.1053H74.9381L72.445 34.6772ZM69.8333 26.7698L64.6691 11.3745L59.5643 26.7698H69.8333Z" fill="white"/>
<path d="M101.074 33.7187H119V42.1053H89.5583V34.3177L107.366 8.43918H89.5583V0.0526123H119V7.84014L101.074 33.7187Z" fill="white"/>
<path d="M16.6498 47.1463C17.1875 47.1463 17.6487 47.2415 18.0334 47.4319C18.4181 47.6223 18.7125 47.8966 18.9164 48.2548C19.1204 48.6129 19.2224 49.0391 19.2224 49.5332C19.2224 50.0229 19.1204 50.4467 18.9164 50.8049C18.7125 51.1585 18.4181 51.4305 18.0334 51.6209C17.6487 51.8068 17.1875 51.8998 16.6498 51.8998H15.2105V47.1463H16.6498ZM16.6498 51.5053C17.3265 51.5053 17.8411 51.3331 18.1933 50.9885C18.5503 50.6394 18.7287 50.1543 18.7287 49.5332C18.7287 48.9076 18.5503 48.4202 18.1933 48.0711C17.8411 47.7175 17.3265 47.5407 16.6498 47.5407H15.6972V51.5053H16.6498Z" fill="white"/>
<path d="M20.6064 47.5339V49.3088H22.4489V49.7032H20.6064V51.5053H22.6575V51.8998H20.1197V47.1395H22.6575V47.5339H20.6064Z" fill="white"/>
<path d="M25.0906 51.9474C24.7707 51.9474 24.488 51.893 24.2423 51.7842C24.0013 51.6753 23.8112 51.5235 23.6722 51.3285C23.5331 51.1336 23.4589 50.916 23.4497 50.6757H23.9642C23.9874 50.9069 24.0917 51.1109 24.2771 51.2877C24.4625 51.46 24.7337 51.5461 25.0906 51.5461C25.4197 51.5461 25.6793 51.4645 25.8693 51.3013C26.064 51.1336 26.1613 50.9228 26.1613 50.6689C26.1613 50.4649 26.108 50.3017 26.0014 50.1793C25.8948 50.0523 25.7627 49.9594 25.6051 49.9004C25.4475 49.837 25.2296 49.769 24.9515 49.6964C24.627 49.6103 24.3698 49.5264 24.1797 49.4448C23.9897 49.3632 23.8275 49.2363 23.693 49.064C23.5586 48.8917 23.4914 48.6582 23.4914 48.3636C23.4914 48.1187 23.5563 47.9011 23.6861 47.7107C23.8159 47.5158 23.999 47.3639 24.2354 47.2551C24.4718 47.1463 24.7429 47.0919 25.0489 47.0919C25.4985 47.0919 25.86 47.2007 26.1335 47.4183C26.4116 47.6314 26.5716 47.9079 26.6133 48.248H26.0849C26.0524 48.053 25.9435 47.8807 25.7581 47.7311C25.5727 47.577 25.3223 47.4999 25.0071 47.4999C24.7151 47.4999 24.4718 47.577 24.2771 47.7311C24.0824 47.8807 23.9851 48.087 23.9851 48.35C23.9851 48.5494 24.0384 48.7104 24.145 48.8328C24.2516 48.9552 24.3837 49.0481 24.5413 49.1116C24.7035 49.1751 24.9214 49.2431 25.1949 49.3156C25.5101 49.4018 25.765 49.4879 25.9597 49.574C26.1544 49.6556 26.3189 49.7826 26.4534 49.9549C26.5878 50.1271 26.655 50.3583 26.655 50.6485C26.655 50.8706 26.5947 51.0814 26.4742 51.2809C26.3537 51.4804 26.1752 51.6413 25.9388 51.7638C25.7024 51.8862 25.4197 51.9474 25.0906 51.9474Z" fill="white"/>
<path d="M28.0822 47.5339V49.3088H29.9247V49.7032H28.0822V51.5053H30.1333V51.8998H27.5955V47.1395H30.1333V47.5339H28.0822Z" fill="white"/>
<path d="M34.7566 51.8998H34.2699L31.5791 47.9011V51.8998H31.0924V47.1463H31.5791L34.2699 51.1381V47.1463H34.7566V51.8998Z" fill="white"/>
<path d="M39.7109 47.1463L37.8684 51.8998H37.3121L35.4696 47.1463H35.998L37.5902 51.3829L39.1964 47.1463H39.7109Z" fill="white"/>
<path d="M42.6254 51.9474C42.1758 51.9474 41.7679 51.8454 41.4017 51.6413C41.0355 51.4328 40.7458 51.1449 40.5326 50.7777C40.324 50.4059 40.2197 49.9866 40.2197 49.5196C40.2197 49.0527 40.324 48.6356 40.5326 48.2684C40.7458 47.8966 41.0355 47.6087 41.4017 47.4047C41.7679 47.1962 42.1758 47.0919 42.6254 47.0919C43.0797 47.0919 43.4899 47.1962 43.8561 47.4047C44.2223 47.6087 44.5097 47.8966 44.7183 48.2684C44.9269 48.6356 45.0312 49.0527 45.0312 49.5196C45.0312 49.9866 44.9269 50.4059 44.7183 50.7777C44.5097 51.1449 44.2223 51.4328 43.8561 51.6413C43.4899 51.8454 43.0797 51.9474 42.6254 51.9474ZM42.6254 51.5325C42.987 51.5325 43.3115 51.4509 43.5989 51.2877C43.8862 51.1245 44.1134 50.891 44.2802 50.5873C44.4471 50.279 44.5306 49.9231 44.5306 49.5196C44.5306 49.1161 44.4471 48.7625 44.2802 48.4588C44.1134 48.155 43.8862 47.9215 43.5989 47.7583C43.3115 47.5951 42.987 47.5135 42.6254 47.5135C42.2639 47.5135 41.9394 47.5951 41.652 47.7583C41.3646 47.9215 41.1375 48.155 40.9706 48.4588C40.8038 48.7625 40.7203 49.1161 40.7203 49.5196C40.7203 49.9231 40.8038 50.279 40.9706 50.5873C41.1375 50.891 41.3646 51.1245 41.652 51.2877C41.9394 51.4509 42.2639 51.5325 42.6254 51.5325Z" fill="white"/>
<path d="M46.4085 51.5121H48.1536V51.8998H45.9217V47.1463H46.4085V51.5121Z" fill="white"/>
<path d="M52.7002 47.1463L50.8577 51.8998H50.3014L48.4589 47.1463H48.9873L50.5795 51.3829L52.1857 47.1463H52.7002Z" fill="white"/>
<path d="M53.9182 47.1463V51.8998H53.4315V47.1463H53.9182Z" fill="white"/>
<path d="M59.7692 47.2075V51.8998H59.2825V48.1527L57.5721 51.8998H57.2175L55.5071 48.1663V51.8998H55.0204V47.2075H55.5349L57.3913 51.2741L59.2478 47.2075H59.7692Z" fill="white"/>
<path d="M61.3601 47.5339V49.3088H63.2026V49.7032H61.3601V51.5053H63.4112V51.8998H60.8734V47.1395H63.4112V47.5339H61.3601Z" fill="white"/>
<path d="M68.0344 51.8998H67.5477L64.8569 47.9011V51.8998H64.3702V47.1463H64.8569L67.5477 51.1381V47.1463H68.0344V51.8998Z" fill="white"/>
<path d="M71.9806 47.1463V47.5407H70.6317V51.8998H70.145V47.5407H68.7892V47.1463H71.9806Z" fill="white"/>
<path d="M74.9323 51.9474C74.4827 51.9474 74.0748 51.8454 73.7086 51.6413C73.3424 51.4328 73.0527 51.1449 72.8395 50.7777C72.6309 50.4059 72.5266 49.9866 72.5266 49.5196C72.5266 49.0527 72.6309 48.6356 72.8395 48.2684C73.0527 47.8966 73.3424 47.6087 73.7086 47.4047C74.0748 47.1962 74.4827 47.0919 74.9323 47.0919C75.3866 47.0919 75.7968 47.1962 76.163 47.4047C76.5292 47.6087 76.8166 47.8966 77.0252 48.2684C77.2338 48.6356 77.3381 49.0527 77.3381 49.5196C77.3381 49.9866 77.2338 50.4059 77.0252 50.7777C76.8166 51.1449 76.5292 51.4328 76.163 51.6413C75.7968 51.8454 75.3866 51.9474 74.9323 51.9474ZM74.9323 51.5325C75.2939 51.5325 75.6184 51.4509 75.9057 51.2877C76.1931 51.1245 76.4203 50.891 76.5871 50.5873C76.754 50.279 76.8374 49.9231 76.8374 49.5196C76.8374 49.1161 76.754 48.7625 76.5871 48.4588C76.4203 48.155 76.1931 47.9215 75.9057 47.7583C75.6184 47.5951 75.2939 47.5135 74.9323 47.5135C74.5708 47.5135 74.2463 47.5951 73.9589 47.7583C73.6715 47.9215 73.4444 48.155 73.2775 48.4588C73.1106 48.7625 73.0272 49.1161 73.0272 49.5196C73.0272 49.9231 73.1106 50.279 73.2775 50.5873C73.4444 50.891 73.6715 51.1245 73.9589 51.2877C74.2463 51.4509 74.5708 51.5325 74.9323 51.5325Z" fill="white"/>
<path d="M80.6233 47.1463V51.8998H80.1366V47.1463H80.6233Z" fill="white"/>
<path d="M86.4744 47.2075V51.8998H85.9877V48.1527L84.2772 51.8998H83.9226L82.2122 48.1663V51.8998H81.7255V47.2075H82.24L84.0965 51.2741L85.9529 47.2075H86.4744Z" fill="white"/>
<path d="M89.7617 51.9474C89.3121 51.9474 88.9042 51.8454 88.538 51.6413C88.1718 51.4328 87.8821 51.1449 87.6689 50.7777C87.4603 50.4059 87.356 49.9866 87.356 49.5196C87.356 49.0527 87.4603 48.6356 87.6689 48.2684C87.8821 47.8966 88.1718 47.6087 88.538 47.4047C88.9042 47.1962 89.3121 47.0919 89.7617 47.0919C90.216 47.0919 90.6262 47.1962 90.9924 47.4047C91.3586 47.6087 91.646 47.8966 91.8546 48.2684C92.0631 48.6356 92.1674 49.0527 92.1674 49.5196C92.1674 49.9866 92.0631 50.4059 91.8546 50.7777C91.646 51.1449 91.3586 51.4328 90.9924 51.6413C90.6262 51.8454 90.216 51.9474 89.7617 51.9474ZM89.7617 51.5325C90.1233 51.5325 90.4477 51.4509 90.7351 51.2877C91.0225 51.1245 91.2496 50.891 91.4165 50.5873C91.5834 50.279 91.6668 49.9231 91.6668 49.5196C91.6668 49.1161 91.5834 48.7625 91.4165 48.4588C91.2496 48.155 91.0225 47.9215 90.7351 47.7583C90.4477 47.5951 90.1233 47.5135 89.7617 47.5135C89.4002 47.5135 89.0757 47.5951 88.7883 47.7583C88.5009 47.9215 88.2738 48.155 88.1069 48.4588C87.94 48.7625 87.8566 49.1161 87.8566 49.5196C87.8566 49.9231 87.94 50.279 88.1069 50.5873C88.2738 50.891 88.5009 51.1245 88.7883 51.2877C89.0757 51.4509 89.4002 51.5325 89.7617 51.5325Z" fill="white"/>
<path d="M95.3316 49.4448C95.6051 49.4947 95.8369 49.6307 96.0269 49.8528C96.217 50.075 96.312 50.3334 96.312 50.6281C96.312 50.8684 96.2494 51.086 96.1243 51.2809C96.0038 51.4713 95.8253 51.6232 95.5889 51.7366C95.3525 51.8454 95.0697 51.8998 94.7406 51.8998H93.058V47.1463H94.692C95.1833 47.1463 95.5565 47.2574 95.8114 47.4795C96.071 47.7017 96.2008 47.9895 96.2008 48.3432C96.2008 48.6378 96.1197 48.8781 95.9574 49.064C95.7952 49.2453 95.5866 49.3723 95.3316 49.4448ZM93.5447 49.2476H94.6781C95.0072 49.2476 95.2598 49.1728 95.4359 49.0232C95.6167 48.8691 95.7071 48.6582 95.7071 48.3908C95.7071 48.1278 95.6167 47.9215 95.4359 47.7719C95.2598 47.6223 95.0002 47.5475 94.6572 47.5475H93.5447V49.2476ZM94.7059 51.4985C95.0582 51.4985 95.3316 51.4169 95.5263 51.2537C95.7256 51.0905 95.8253 50.8661 95.8253 50.5805C95.8253 50.2949 95.721 50.0682 95.5124 49.9004C95.3085 49.7282 95.0327 49.642 94.685 49.642H93.5447V51.4985H94.7059Z" fill="white"/>
<path d="M97.6934 47.1463V51.8998H97.2067V47.1463H97.6934Z" fill="white"/>
<path d="M99.2823 51.5121H101.027V51.8998H98.7956V47.1463H99.2823V51.5121Z" fill="white"/>
<path d="M102.209 47.1463V51.8998H101.722V47.1463H102.209Z" fill="white"/>
<path d="M106.127 50.7709H103.916L103.492 51.8998H102.977L104.75 47.2075H105.299L107.066 51.8998H106.551L106.127 50.7709ZM105.981 50.3765L105.021 47.8059L104.062 50.3765H105.981ZM105.668 46.1126L104.243 46.9219V46.5547L105.668 45.6842V46.1126Z" fill="white"/>
<path d="M110.433 51.8998L109.23 49.914H108.333V51.8998H107.847V47.1463H109.307C109.849 47.1463 110.259 47.2732 110.537 47.5271C110.82 47.781 110.962 48.1142 110.962 48.5268C110.962 48.8713 110.86 49.166 110.656 49.4108C110.456 49.6511 110.16 49.8075 109.766 49.88L111.017 51.8998H110.433ZM108.333 49.5264H109.314C109.694 49.5264 109.979 49.4358 110.169 49.2544C110.364 49.0731 110.461 48.8305 110.461 48.5268C110.461 48.214 110.368 47.9737 110.183 47.8059C109.997 47.6336 109.705 47.5475 109.307 47.5475H108.333V49.5264Z" fill="white"/>
<path d="M112.414 47.1463V51.8998H111.927V47.1463H112.414Z" fill="white"/>
<path d="M115.7 51.9474C115.25 51.9474 114.842 51.8454 114.476 51.6413C114.11 51.4328 113.82 51.1449 113.607 50.7777C113.398 50.4059 113.294 49.9866 113.294 49.5196C113.294 49.0527 113.398 48.6356 113.607 48.2684C113.82 47.8966 114.11 47.6087 114.476 47.4047C114.842 47.1962 115.25 47.0919 115.7 47.0919C116.154 47.0919 116.564 47.1962 116.93 47.4047C117.296 47.6087 117.584 47.8966 117.792 48.2684C118.001 48.6356 118.105 49.0527 118.105 49.5196C118.105 49.9866 118.001 50.4059 117.792 50.7777C117.584 51.1449 117.296 51.4328 116.93 51.6413C116.564 51.8454 116.154 51.9474 115.7 51.9474ZM115.7 51.5325C116.061 51.5325 116.386 51.4509 116.673 51.2877C116.96 51.1245 117.188 50.891 117.354 50.5873C117.521 50.279 117.605 49.9231 117.605 49.5196C117.605 49.1161 117.521 48.7625 117.354 48.4588C117.188 48.155 116.96 47.9215 116.673 47.7583C116.386 47.5951 116.061 47.5135 115.7 47.5135C115.338 47.5135 115.014 47.5951 114.726 47.7583C114.439 47.9215 114.212 48.155 114.045 48.4588C113.878 48.7625 113.794 49.1161 113.794 49.5196C113.794 49.9231 113.878 50.279 114.045 50.5873C114.212 50.891 114.439 51.1245 114.726 51.2877C115.014 51.4509 115.338 51.5325 115.7 51.5325Z" fill="white"/>
</svg>
