<svg width="64" height="64" viewBox="0 0 64 64" fill="none" xmlns="http://www.w3.org/2000/svg">
<g clip-path="url(#clip0)">
<path d="M55.0009 44.611C52.9902 42.7584 50.3954 41.4113 47.5317 40.6681C49.3656 39.7477 50.9076 38.5431 52.0048 37.1261C53.3959 35.3287 53.9648 33.3326 53.6484 31.3546C53.3066 29.214 51.9164 27.1905 49.7348 25.6568C48.1698 24.5567 46.3168 23.7833 44.3383 23.3653C45.5751 22.5553 46.5448 21.6051 47.1791 20.5523C48.0653 19.0807 48.2748 17.4239 47.7841 15.7603C47.0126 13.1456 44.2855 11.0587 40.6527 10.1309C41.1425 9.69051 41.5473 9.21297 41.8539 8.70418C42.5692 7.51667 42.7377 6.18025 42.3422 4.83942C41.5746 2.23737 38.4066 0.295956 34.4594 0.00786957C33.6761 -0.0487712 32.1844 0.205624 29.9979 0.600644C29.1683 0.751035 28.3846 0.892637 28.014 0.932676L22.6546 1.5108C19.7147 1.82819 17.1219 3.27301 15.7191 5.37604C14.7401 6.84431 14.4442 8.47859 14.8865 9.97859C15.7503 12.9063 19.3255 14.8097 23.4408 14.8097C24.3265 14.8097 25.2372 14.7218 26.1512 14.5367L34.8519 12.7755C35.6395 12.6163 36.3842 12.4093 37.078 12.1617C37.3505 12.1422 37.4823 12.1466 37.5297 12.15C41.4276 12.4342 44.7318 14.2501 45.3861 16.4679C45.6815 17.4688 45.5673 18.3829 45.0375 19.2628C43.9584 21.0543 41.141 22.6017 37.6845 23.3014L26.1712 25.6319C24.7357 25.9225 23.2879 26.004 21.9037 25.8859C21.8558 25.879 21.8075 25.8751 21.7581 25.8741C20.6268 25.7652 19.5404 25.5216 18.5423 25.1442C16.4842 24.3658 15.0574 23.0831 14.6273 21.6246C14.5111 21.2315 14.4642 20.8185 14.4876 20.3966C14.5262 19.7071 13.9984 19.1173 13.3094 19.0787C12.6199 19.0387 12.0301 19.568 11.9915 20.2574C11.952 20.9654 12.032 21.6637 12.2293 22.3321C12.89 24.5714 14.8182 26.3336 17.4032 27.3776C15.8812 28.2345 14.5599 29.2926 13.5687 30.464C11.9515 32.3751 11.2679 34.4591 11.5926 36.4909C12.0037 39.0636 13.5882 40.9079 15.806 42.1251C13.492 42.9616 10.7278 44.255 8.67999 46.1359C8.67071 46.1447 8.66143 46.1535 8.65215 46.1628C6.58965 48.1774 5.4998 50.4723 5.4998 52.799C5.4998 56.3473 7.49395 59.2751 11.2669 61.2648C14.3353 62.8835 18.4657 63.7971 22.8973 63.8376L40.6044 63.9987C40.6864 63.9997 40.767 64.0002 40.849 64.0002C46.7533 63.9997 52.2426 62.0446 55.5707 58.7468C57.5732 56.7629 58.6313 54.4421 58.6313 52.0348C58.6313 49.404 57.3417 46.7672 55.0009 44.611ZM34.3563 10.3248L25.6551 12.086C24.8822 12.2423 24.1307 12.314 23.4139 12.314C20.243 12.314 17.7689 10.9127 17.2845 9.27058C17.0555 8.49422 17.2381 7.60359 17.7987 6.76277C18.7952 5.26911 20.7108 4.23493 22.9227 3.99616L28.2821 3.41754C28.7411 3.36823 29.5296 3.22565 30.4422 3.06061C31.6205 2.84772 33.5536 2.49811 34.1908 2.49811C34.223 2.49811 34.2523 2.49909 34.2772 2.50104C37.0555 2.70368 39.4916 4.01276 39.9442 5.54597C40.142 6.21589 40.0658 6.82673 39.7123 7.41413C39.1552 8.33943 37.9325 9.17683 36.3456 9.76473C36.3358 9.76814 36.3261 9.77107 36.3168 9.77498C35.7103 9.99764 35.0516 10.1842 34.3563 10.3248ZM14.0613 36.0958C13.6346 33.4269 16.3304 30.3087 20.4715 28.6818C20.5975 28.6324 20.9334 28.5294 21.7826 28.3815C22.2303 28.4176 22.6849 28.4371 23.1454 28.4371C24.2948 28.4371 25.4789 28.3224 26.6673 28.0817L38.1698 25.7535C41.8012 25.0685 45.5863 25.7965 48.2968 27.7018C49.9213 28.8439 50.9452 30.2814 51.1796 31.7487C51.4379 33.3649 50.6957 34.7325 50.0278 35.5953C48.1855 37.9752 44.5336 39.6925 40.4975 40.0763L26.5995 41.3986C21.0526 41.9254 14.7635 40.4918 14.0613 36.0958ZM53.811 56.9709C50.9438 59.8122 45.8915 61.5432 40.6268 61.4992L22.9203 61.3371C18.8802 61.3005 15.1556 60.4894 12.4334 59.0534C9.49151 57.5016 7.99981 55.3971 7.99981 52.799C7.99981 50.738 9.29376 49.0343 10.3856 47.964C13.2552 45.338 18.0462 43.9606 19.7381 43.5373C21.2103 43.8541 22.7835 44.005 24.3744 44.005C25.1937 44.005 26.0189 43.965 26.8358 43.8874L40.7225 42.5666C45.5351 42.172 50.2387 43.6237 53.3071 46.4499C55.1279 48.1271 56.1308 50.111 56.1308 52.0353C56.1313 53.7599 55.329 55.467 53.811 56.9709Z" fill="#EEBD43"/>
<path d="M44.7637 56.4938C44.7589 56.4943 44.7447 56.4958 44.7398 56.4963C44.0528 56.5607 43.5479 57.1699 43.6124 57.8571C43.6729 58.5044 44.2173 58.99 44.855 58.99C44.8941 58.99 44.9337 58.9881 44.9732 58.9842C44.9771 58.9842 44.9937 58.9822 45.0001 58.9817C45.6856 58.9154 46.1891 58.3072 46.1246 57.6214C46.0606 56.9341 45.4522 56.4294 44.7637 56.4938Z" fill="#EEBD43"/>
<path d="M53.102 52.4486C52.478 52.1542 51.7329 52.4213 51.4385 53.0458C51.164 53.6264 50.3535 54.3768 49.6948 54.8173C49.2124 55.14 48.6802 55.4242 48.1133 55.662C47.4765 55.9296 47.1772 56.662 47.4443 57.2987C47.645 57.7773 48.1089 58.0648 48.5971 58.0648C48.7588 58.0648 48.9228 58.0336 49.0805 57.9672C49.7949 57.6674 50.4692 57.307 51.0844 56.8954C51.4018 56.683 53.0205 55.5507 53.6992 54.1122C53.9941 53.4882 53.7265 52.7431 53.102 52.4486Z" fill="#EEBD43"/>
<path d="M13.8502 17.6991C14.089 17.9139 14.3878 18.0193 14.6857 18.0193C15.028 18.0193 15.3688 17.8797 15.6154 17.6054L15.6261 17.5937C16.0978 17.0905 16.0729 16.3007 15.5704 15.8287C15.067 15.3557 14.276 15.3806 13.8033 15.8833C13.7892 15.8985 13.7731 15.9161 13.7565 15.9341C13.295 16.4476 13.337 17.2374 13.8502 17.6991Z" fill="#EEBD43"/>
<path d="M44.1611 37.1025C44.3223 37.1025 44.4863 37.0707 44.6445 37.0043C45.3589 36.7045 46.0327 36.3437 46.648 35.9325C46.9658 35.7201 48.584 34.5878 49.2627 33.1493C49.5577 32.5253 49.2901 31.7802 48.666 31.4857C48.0415 31.1913 47.2969 31.4584 47.002 32.0824C46.7281 32.6635 45.9175 33.4135 45.2583 33.8544C44.7759 34.1767 44.2437 34.4613 43.6768 34.6991C43.0401 34.9667 42.7407 35.6991 43.0078 36.3354C43.209 36.8144 43.6729 37.1025 44.1611 37.1025Z" fill="#EEBD43"/>
</g>
<defs>
<clipPath id="clip0">
<rect width="64" height="64" fill="white"/>
</clipPath>
</defs>
</svg>
