<svg width="53" height="64" viewBox="0 0 53 64" fill="none" xmlns="http://www.w3.org/2000/svg">
<path d="M50.8766 39.9995H50.056V35.9995C50.056 34.3455 48.9515 32.9995 47.5942 32.9995C46.237 32.9995 45.1324 34.3455 45.1324 35.9995H41.8501V32.9995C41.8501 32.4465 41.4825 31.9995 41.0295 31.9995H32.7153L33.5063 30.5545C33.5958 30.3905 33.6442 30.1965 33.6442 29.9995V26.9995C34.0971 26.9995 34.4648 26.5525 34.4648 25.9995V17.9995C34.4648 15.2425 32.6242 12.9995 30.3618 12.9995H29.698C30.6121 11.7275 31.1824 9.95751 31.1824 7.99951C31.1824 4.14051 28.9742 0.999512 26.2589 0.999512C23.5435 0.999512 21.3353 4.14051 21.3353 7.99951C21.3353 9.95751 21.9056 11.7275 22.8198 12.9995H22.1559C19.8936 12.9995 18.053 15.2425 18.053 17.9995V25.9995C18.053 26.5525 18.4206 26.9995 18.8736 26.9995V29.9995C18.8736 30.1965 18.922 30.3905 19.0114 30.5545L19.8025 31.9995H14.7706C13.8097 31.9995 12.9366 32.4205 12.2366 33.0975C11.8181 30.2165 9.4376 27.9995 6.56472 27.9995C3.39724 27.9995 0.820587 30.6905 0.820587 33.9995C0.820587 37.3085 3.39724 39.9995 6.56472 39.9995C8.22559 39.9995 9.71906 39.2555 10.7686 38.0745C10.8974 38.7885 11.1592 39.4355 11.5088 39.9995H6.56472H1.64118C1.18821 39.9995 0.820587 40.4465 0.820587 40.9995V44.9995C0.820587 45.5525 1.18821 45.9995 1.64118 45.9995H4.10295V61.9995C4.10295 62.5525 4.47057 62.9995 4.92354 62.9995H8.2059C8.65886 62.9995 9.02649 62.5525 9.02649 61.9995V45.9995H20.5147V53.9995C20.5147 54.5525 20.8824 54.9995 21.3353 54.9995H22.1559V58.9995H22.1773C21.6562 59.8375 21.3353 60.8695 21.3353 61.9995C21.3353 62.5525 21.703 62.9995 22.1559 62.9995H30.3618C30.8148 62.9995 31.1824 62.5525 31.1824 61.9995C31.1824 60.8695 30.8616 59.8375 30.3405 58.9995H30.3618V54.9995H31.1824C31.6354 54.9995 32.003 54.5525 32.003 53.9995V50.6175L34.3031 49.2165L35.5258 50.7065C35.8466 51.0975 36.3653 51.0975 36.6861 50.7065L37.9088 49.2165L40.6619 50.8945C40.7784 50.9645 40.9039 50.9995 41.0295 50.9995C41.1797 50.9995 41.329 50.9495 41.4611 50.8505C41.7024 50.6675 41.8501 50.3465 41.8501 49.9995V45.9995H43.4913V61.9995C43.4913 62.5525 43.8589 62.9995 44.3118 62.9995H47.5942C48.0472 62.9995 48.4148 62.5525 48.4148 61.9995V45.9995H50.8766C51.3295 45.9995 51.6972 45.5525 51.6972 44.9995V40.9995C51.6972 40.4465 51.3295 39.9995 50.8766 39.9995ZM32.003 29.6965L30.7434 31.9995H28.7206L30.1977 29.5995C30.3044 29.4265 30.3618 29.2165 30.3618 28.9995V26.9995H32.003V29.6965ZM22.9765 7.99951C22.9765 5.24251 24.4487 2.99951 26.2589 2.99951C28.0691 2.99951 29.5412 5.24251 29.5412 7.99951C29.5412 10.7565 28.0691 12.9995 26.2589 12.9995C24.4487 12.9995 22.9765 10.7565 22.9765 7.99951ZM19.6942 17.9995C19.6942 16.3455 20.7987 14.9995 22.1559 14.9995H30.3618C31.7191 14.9995 32.8236 16.3455 32.8236 17.9995V24.9995H30.3618V20.9995H28.7206V25.9995V28.6665L26.6692 31.9995H25.8486L23.7971 28.6665V25.9995V20.9995H22.1559V24.9995H19.6942V17.9995ZM20.5147 29.6965V26.9995H22.1559V28.9995C22.1559 29.2165 22.2134 29.4265 22.32 29.5995L23.7971 31.9995H21.7743L20.5147 29.6965ZM6.56472 37.9995C4.30235 37.9995 2.46177 36.2055 2.46177 33.9995C2.46177 31.7935 4.30235 29.9995 6.56472 29.9995C8.82708 29.9995 10.6677 31.7935 10.6677 33.9995C10.6677 36.2055 8.82708 37.9995 6.56472 37.9995ZM12.3088 36.9995C12.3088 35.3455 13.4134 33.9995 14.7706 33.9995H30.3618V39.9995H15.5912H14.7706C13.4134 39.9995 12.3088 38.6535 12.3088 36.9995ZM2.46177 41.9995H14.7706H15.5912H30.3618V43.9995H2.46177V41.9995ZM7.38531 60.9995H5.74413V45.9995H7.38531V60.9995ZM25.4383 45.9995V52.9995H22.1559V45.9995H25.4383ZM25.4383 54.9995V56.9995C24.854 56.9995 24.3009 57.1535 23.7971 57.4235V54.9995H25.4383ZM23.1168 60.9995C23.4557 59.8355 24.3682 58.9995 25.4383 58.9995V60.9995H23.1168ZM27.0795 60.9995V58.9995C28.1495 58.9995 29.062 59.8355 29.4009 60.9995H27.0795ZM28.7206 57.4235C28.2168 57.1535 27.6637 56.9995 27.0795 56.9995V54.9995H28.7206V57.4235ZM30.3618 52.9995H27.0795V45.9995H30.3618V48.9995V49.9995V52.9995ZM40.2089 48.3815L38.1139 47.1055C37.7972 46.9125 37.4164 46.9895 37.167 47.2935L36.1059 48.5855L35.0449 47.2925C34.8874 47.1005 34.6773 46.9995 34.4648 46.9995C34.3409 46.9995 34.2145 47.0335 34.098 47.1045L32.003 48.3815V33.9995H35.2854V45.9995H36.9265V33.9995H40.2089V48.3815ZM45.953 37.9995C46.406 37.9995 46.7736 37.5525 46.7736 36.9995V35.9995C46.7736 35.4475 47.1421 34.9995 47.5942 34.9995C48.0464 34.9995 48.4148 35.4475 48.4148 35.9995V39.9995H41.8501V37.9995H45.953ZM46.7736 60.9995H45.1324V45.9995H46.7736V60.9995ZM50.056 43.9995H41.8501V41.9995H50.056V43.9995Z" fill="#EEBD43"/>
</svg>
