<svg width="64" height="64" viewBox="0 0 64 64" fill="none" xmlns="http://www.w3.org/2000/svg">
<g clip-path="url(#clip0)">
<path d="M60.25 25.75H59V20.125C59 17.3677 56.7563 15.125 54 15.125C53.0361 15.125 52.1348 15.3989 51.3711 15.8735C50.8599 13.6562 48.8687 12 46.5 12H46.4985C43.7427 12 41.4985 14.2427 41.4985 17V25.75H22.5015V17C22.5015 14.2427 20.2573 12 17.5 12C15.1313 12 13.1401 13.6562 12.6289 15.8735C11.8652 15.3989 10.9639 15.125 10 15.125C7.24365 15.125 5 17.3677 5 20.125V25.75H3.75C1.68262 25.75 0 27.4326 0 29.5V34.5C0 36.5674 1.68262 38.25 3.75 38.25H5V43.875C5 46.6323 7.24365 48.875 10 48.875C10.9639 48.875 11.8652 48.6011 12.6289 48.1265C13.1401 50.3438 15.1313 52 17.5 52H17.5015C20.2573 52 22.5015 49.7573 22.5015 47V38.25H41.4985V47C41.4985 49.7573 43.7427 52 46.5 52C48.8687 52 50.8599 50.3438 51.3711 48.1265C52.1348 48.6011 53.0361 48.875 54 48.875C56.7563 48.875 59 46.6323 59 43.875V38.25H60.25C62.3174 38.25 64 36.5674 64 34.5V29.5C64 27.4326 62.3174 25.75 60.25 25.75ZM5 35.75H3.75C3.06104 35.75 2.5 35.189 2.5 34.5V29.5C2.5 28.811 3.06104 28.25 3.75 28.25H5V35.75ZM12.5 43.875C12.5 44.5649 12.2202 45.1899 11.7676 45.6426C11.3149 46.0952 10.6899 46.375 10 46.375C8.62109 46.375 7.5 45.2539 7.5 43.875V20.125C7.5 18.7461 8.62109 17.625 10 17.625C11.3789 17.625 12.5 18.7461 12.5 20.125V43.875ZM20.0015 47C20.0015 48.3789 18.8789 49.5 17.5015 49.5H17.5C16.1226 49.5 15 48.3789 15 47V17C15 15.6211 16.1226 14.5 17.5015 14.5C18.8789 14.5 20.0015 15.6211 20.0015 17V47ZM41.4912 30.75H32.75C32.0601 30.75 31.5 31.3101 31.5 32C31.5 32.6899 32.0601 33.25 32.75 33.25H41.4912V35.75H22.4951V28.25H41.4912V30.75ZM49 47C49 48.3789 47.8774 49.5 46.4985 49.5C45.1211 49.5 43.9985 48.3789 43.9985 47V32.064C43.9976 32.0913 43.9951 32.1187 43.9912 32.145V31.855C43.9951 31.8813 43.9976 31.9087 43.9985 31.936V17C43.9985 15.6211 45.1211 14.5 46.4985 14.5H46.5C47.8774 14.5 49 15.6211 49 17V47ZM56.5 43.875C56.5 45.2539 55.3789 46.375 54 46.375C52.6211 46.375 51.5 45.2539 51.5 43.875V20.125C51.5 18.7461 52.6211 17.625 54 17.625C55.3789 17.625 56.5 18.7461 56.5 20.125V43.875ZM61.5 34.5C61.5 35.189 60.939 35.75 60.25 35.75H59V28.25H60.25C60.939 28.25 61.5 28.811 61.5 29.5V34.5Z" fill="#EEBD43"/>
<path d="M27.7524 33.25C27.062 33.25 26.502 32.6904 26.502 32C26.502 31.3096 27.061 30.75 27.7515 30.75H27.7524C28.4429 30.75 29.0024 31.3096 29.0024 32C29.0024 32.6904 28.4429 33.25 27.7524 33.25Z" fill="#EEBD43"/>
</g>
<defs>
<clipPath id="clip0">
<rect width="64" height="64" fill="white"/>
</clipPath>
</defs>
</svg>
