<svg width="60" height="64" viewBox="0 0 60 64" fill="none" xmlns="http://www.w3.org/2000/svg">
<path d="M59.1211 38.5774C58.766 38.5774 58.434 38.5931 58.1213 38.6216V23.4829C58.1213 22.9651 57.7277 22.5454 57.2423 22.5454H46.909C46.4236 22.5454 46.0301 22.9651 46.0301 23.4829C46.0301 24.0006 46.4236 24.4204 46.909 24.4204H56.3634V38.9611C55.3167 39.284 54.5423 39.7627 53.8242 40.2072C52.6312 40.9457 51.6009 41.5836 49.4096 41.5836C47.2184 41.5836 46.188 40.9457 44.9951 40.2072C43.7612 39.4434 42.3626 38.5775 39.6982 38.5775C38.3668 38.5775 37.3518 38.7939 36.5153 39.1059V24.4204H43.1514C43.6368 24.4204 44.0303 24.0006 44.0303 23.4829C44.0303 22.9651 43.6368 22.5454 43.1514 22.5454H42.1515V14.4647C42.1515 12.2902 40.4931 10.5212 38.4545 10.5212C36.4159 10.5212 34.7575 12.2902 34.7575 14.4647V22.5454H29.0002V14.4647C29.0002 12.2902 27.3417 10.5212 25.3031 10.5212C23.2645 10.5212 21.6061 12.2902 21.6061 14.4647V22.5454H2.75766C2.27227 22.5454 1.87875 22.9651 1.87875 23.4829V38.622C1.56598 38.5935 1.23398 38.5776 0.878906 38.5776C0.393516 38.5776 0 38.9974 0 39.5151C0 40.0329 0.393516 40.4526 0.878906 40.4526C3.06762 40.4526 4.09676 41.0904 5.28832 41.8287C6.52125 42.5927 7.91859 43.4586 10.5809 43.4586C13.2437 43.4586 14.6413 42.5927 15.8745 41.8287C17.0665 41.0902 18.096 40.4525 20.2854 40.4525C22.4756 40.4525 23.5056 41.0902 24.698 41.8287C25.9315 42.5926 27.3296 43.4585 29.9932 43.4585C32.6562 43.4585 34.0539 42.5926 35.287 41.8286C36.4791 41.0901 37.5086 40.4524 39.6981 40.4524C41.8894 40.4524 42.9197 41.0902 44.1127 41.8287C45.3465 42.5926 46.7452 43.4585 49.4096 43.4585C52.074 43.4585 53.4727 42.5927 54.7065 41.8287C55.8995 41.0902 56.9298 40.4524 59.1211 40.4524C59.6065 40.4524 60 40.0326 60 39.5149C60 38.9971 59.6065 38.5774 59.1211 38.5774ZM21.606 38.6565C21.2023 38.6061 20.7647 38.5777 20.2854 38.5777C17.6225 38.5777 16.2248 39.4436 14.9917 40.2076C13.7996 40.9461 12.7702 41.5839 10.5809 41.5839C8.39215 41.5839 7.36301 40.9461 6.17133 40.2077C5.45437 39.7635 4.68117 39.285 3.63656 38.9621V24.4204H21.606V38.6565ZM23.3637 14.4647H23.3638C23.3638 13.3241 24.2337 12.3962 25.303 12.3962C26.3723 12.3962 27.2422 13.3241 27.2422 14.4647V22.5454H23.3637V14.4647ZM34.7573 39.9902C34.6377 40.0629 34.5203 40.1356 34.4043 40.2075C33.2122 40.946 32.1827 41.5837 29.9932 41.5837C27.8029 41.5837 26.773 40.9459 25.5805 40.2075C24.9382 39.8097 24.2508 39.3845 23.3637 39.0681V36.4447H34.7573V39.9902ZM34.7575 34.5696H23.3638V30.4325H34.7575V34.5696ZM34.7575 28.5574H23.3638V24.4202H34.7575V28.5574ZM36.5152 14.4647C36.5153 13.3241 37.3852 12.3962 38.4545 12.3962C39.5238 12.3962 40.3937 13.3241 40.3937 14.4647V22.5454H36.5152V14.4647Z" fill="#EEBD43"/>
<path d="M59.1211 43.5879C58.3759 43.5879 57.7058 43.6526 57.0727 43.7857C56.5964 43.8858 56.2864 44.3786 56.3803 44.8864C56.4629 45.333 56.8303 45.6425 57.2416 45.6425C57.298 45.6425 57.3552 45.6368 57.4126 45.6247C57.9325 45.5153 58.4913 45.4622 59.1211 45.4622C59.6065 45.4622 60 45.0426 60 44.5251C60 44.0075 59.6065 43.5879 59.1211 43.5879Z" fill="#EEBD43"/>
<path d="M54.2061 46.0943C53.9808 45.6356 53.4496 45.4587 53.0197 45.6989C52.1882 46.1635 51.1753 46.5935 49.4098 46.5935C47.2185 46.5935 46.1882 45.9556 44.9952 45.2172C43.7613 44.4533 42.3627 43.5874 39.6983 43.5874C37.0354 43.5874 35.6377 44.4533 34.4045 45.2173C33.2125 45.9558 32.183 46.5935 29.9934 46.5935C27.8031 46.5935 26.7732 45.9557 25.5807 45.2173C24.3472 44.4534 22.9492 43.5875 20.2855 43.5875C17.6227 43.5875 16.225 44.4534 14.9918 45.2174C13.7998 45.9559 12.7703 46.5936 10.581 46.5936C8.39227 46.5936 7.36312 45.9559 6.17144 45.2175C4.93852 44.4535 3.54117 43.5877 0.878906 43.5877C0.393516 43.5877 0 44.0074 0 44.5251C0 45.0429 0.393516 45.4626 0.878906 45.4626C3.06762 45.4626 4.09676 46.1004 5.28832 46.8388C6.52125 47.6028 7.91859 48.4686 10.5809 48.4686C13.2437 48.4686 14.6414 47.6028 15.8746 46.8388C17.0666 46.1003 18.0961 45.4625 20.2855 45.4625C22.4757 45.4625 23.5057 46.1003 24.6981 46.8388C25.9316 47.6026 27.3298 48.4685 29.9933 48.4685C32.6563 48.4685 34.054 47.6027 35.2871 46.8387C36.4792 46.1002 37.5087 45.4624 39.6982 45.4624C41.8895 45.4624 42.9198 46.1003 44.1128 46.8388C45.3466 47.6026 46.7453 48.4685 49.4098 48.4685C51.5611 48.4685 52.8543 47.908 53.8355 47.3598C54.2654 47.1195 54.4314 46.5529 54.2061 46.0943Z" fill="#EEBD43"/>
<path d="M59.1211 48.5977C56.4567 48.5977 55.0581 49.4634 53.8242 50.2274C52.6312 50.9659 51.6009 51.6038 49.4096 51.6038C47.2183 51.6038 46.188 50.9659 44.9951 50.2274C43.7612 49.4635 42.3626 48.5977 39.6982 48.5977C37.0352 48.5977 35.6375 49.4635 34.4044 50.2275C33.2123 50.966 32.1828 51.6038 29.9933 51.6038C27.8029 51.6038 26.7731 50.9659 25.5806 50.2275C24.3471 49.4637 22.949 48.5978 20.2854 48.5978C17.6225 48.5978 16.2248 49.4637 14.9917 50.2277C13.7996 50.9662 12.7701 51.6039 10.5808 51.6039C8.80006 51.6039 7.77174 51.1607 6.92588 50.6818C6.49721 50.4392 5.96506 50.6129 5.73748 51.0703C5.5099 51.5277 5.67291 52.0952 6.1017 52.3379C7.09814 52.9022 8.40959 53.4789 10.5808 53.4789C13.2437 53.4789 14.6413 52.613 15.8744 51.849C17.0665 51.1105 18.096 50.4728 20.2854 50.4728C22.4756 50.4728 23.5056 51.1105 24.6979 51.849C25.9315 52.6129 27.3296 53.4788 29.9932 53.4788C32.6562 53.4788 34.0538 52.6129 35.287 51.8489C36.479 51.1104 37.5085 50.4727 39.6981 50.4727C41.8894 50.4727 42.9197 51.1105 44.1126 51.849C45.3465 52.6129 46.7451 53.4788 49.4096 53.4788C52.074 53.4788 53.4726 52.613 54.7065 51.849C55.8995 51.1105 56.9298 50.4727 59.1211 50.4727C59.6065 50.4727 60 50.0529 60 49.5352C60 49.0174 59.6065 48.5977 59.1211 48.5977Z" fill="#EEBD43"/>
<path d="M2.92816 48.796C2.29465 48.6625 1.62434 48.5977 0.878906 48.5977C0.393516 48.5977 0 49.0173 0 49.5348C0 50.0524 0.393516 50.472 0.878906 50.472C1.50855 50.472 2.06742 50.5252 2.5875 50.6348C2.64504 50.6469 2.70223 50.6528 2.75883 50.6528C3.17004 50.6528 3.53742 50.3435 3.62016 49.8971C3.71414 49.3892 3.40441 48.8963 2.92816 48.796Z" fill="#EEBD43"/>
</svg>
