<svg width="64" height="64" viewBox="0 0 64 64" fill="none" xmlns="http://www.w3.org/2000/svg">
<path d="M39.5303 34.9827C39.0821 34.7234 38.5079 34.8762 38.2481 35.3245C38.0523 35.6619 37.6895 35.8713 37.3004 35.8713C36.9112 35.8713 36.5479 35.6619 36.3526 35.3245C36.0928 34.8757 35.5186 34.7229 35.0699 34.9822C34.6216 35.2419 34.4683 35.8162 34.7281 36.2649C35.2584 37.1799 36.2437 37.7483 37.3004 37.7483C38.3565 37.7483 39.3423 37.1799 39.8721 36.2654C40.1319 35.8171 39.9791 35.2429 39.5303 34.9827Z" fill="#EEBD43"/>
<path d="M28.414 34.9827C27.9653 34.7234 27.391 34.8762 27.1313 35.3245C26.936 35.6619 26.5727 35.8713 26.1835 35.8713C25.7944 35.8713 25.4316 35.6619 25.2358 35.3245C24.976 34.8757 24.4018 34.7229 23.9535 34.9822C23.5048 35.2419 23.352 35.8162 23.6117 36.2649C24.1415 37.1799 25.1269 37.7483 26.1835 37.7483C27.2402 37.7483 28.2255 37.1799 28.7553 36.2654C29.0155 35.8171 28.8622 35.2424 28.414 34.9827Z" fill="#EEBD43"/>
<path d="M48.4615 24.2474C47.9878 21.0712 46.2198 18.2137 43.2056 15.7543C41.9204 14.7059 40.4854 13.8798 39.0352 13.0868C40.6285 10.9828 41.065 8.40222 40.1827 5.87537C38.9869 2.45154 35.6245 0.0906982 31.815 0.000366211C31.8003 -0.00012207 31.7857 -0.00012207 31.7705 0.000366211C27.9283 0.0916748 24.5362 2.47498 23.3291 5.93103C22.8555 7.28699 22.7632 8.65759 23.0259 9.96033C22.6241 10.0985 22.2281 10.2611 21.8399 10.4486C21.4639 10.6302 21.085 10.8197 20.7139 11.0111C19.9165 11.4222 19.4849 12.2606 19.6143 13.1473C19.7437 14.0365 20.3985 14.7191 21.2823 14.8856C21.9751 15.0165 22.647 15.1625 23.3018 15.3197C22.3204 15.9628 21.4043 16.6766 20.5655 17.4545C20.1856 17.807 20.1631 18.4008 20.5157 18.7806C20.8682 19.1605 21.462 19.183 21.8418 18.8304C23.0401 17.7196 24.4131 16.7494 25.9248 15.9462C27.9214 14.8822 30.1216 14.1268 32.4629 13.701C33.2456 13.5594 34.2579 13.3968 35.2535 13.3715C36.5928 13.912 37.855 14.537 39.0274 15.2396C36.7456 15.9301 34.5762 16.7362 32.5552 17.6444C23.5787 21.6757 19.3496 26.8124 17.6836 29.3768C16.8067 27.0458 17.273 24.5555 19.0791 21.953C19.375 21.5272 19.2691 20.9427 18.8433 20.6468C18.4175 20.3514 17.833 20.4569 17.5371 20.8827C15.0147 24.5175 14.6958 28.1605 16.5996 31.4491C16.6001 31.4735 16.6006 31.4979 16.6016 31.5223C16.604 31.5897 16.605 31.6571 16.6084 31.7245C16.6392 32.3343 16.7032 32.9418 16.7764 33.5477C16.8545 34.1893 16.9429 34.8231 17.021 35.4589C17.1236 36.2938 17.2051 37.1097 17.2198 37.9496C17.3179 43.746 21.4703 49.1351 27.0157 51.4364V52.348C27.0157 52.702 26.8052 53.0209 26.479 53.1595L19.5762 56.1009C17.813 56.8524 16.6739 58.5756 16.6739 60.4921V63.0614C16.6739 63.5795 17.0943 63.9999 17.6128 63.9999H45.9527C46.4707 63.9999 46.8912 63.58 46.8912 63.0614V60.4921C46.8912 58.5756 45.752 56.8524 43.9893 56.1009L42.6597 55.5345C42.1827 55.3314 41.6314 55.5536 41.4283 56.0306C41.2251 56.5072 41.4468 57.0585 41.9239 57.2616L43.2535 57.828C44.3228 58.2836 45.0142 59.3295 45.0142 60.4921V62.1229H18.5508V60.4921C18.5508 59.3295 19.2422 58.2836 20.3116 57.828L27.2149 54.8866C28.2339 54.4525 28.8921 53.4559 28.8921 52.348V52.0809C29.8101 52.3314 30.7549 52.4984 31.7173 52.5702C31.7403 52.5721 31.7637 52.5726 31.7871 52.5726C31.8106 52.5726 31.8335 52.5721 31.857 52.5702C32.816 52.4984 33.7579 52.3329 34.6724 52.0834V52.348C34.6724 53.4559 35.3311 54.4525 36.3501 54.8866L37.8833 55.5394C38.3599 55.743 38.9112 55.5209 39.1143 55.0443C39.3174 54.5673 39.0957 54.016 38.6192 53.8129L37.0855 53.1595C36.7598 53.0209 36.5494 52.7025 36.5494 52.348V51.4403C42.0992 49.141 46.2559 43.7494 46.3545 37.9501C46.3741 36.8143 46.5162 35.7235 46.667 34.5687C46.7188 34.1708 46.771 33.765 46.8189 33.3534C46.8199 33.3485 46.8213 33.3436 46.8218 33.3383C46.8394 33.1849 46.8555 33.0385 46.8706 32.8954C46.8706 32.8925 46.8711 32.8895 46.8716 32.8861C46.8921 32.6884 46.9107 32.4979 46.9268 32.3134C46.9341 32.2225 46.94 32.1317 46.9463 32.0404C46.9488 31.9999 46.9522 31.9589 46.9546 31.9178C46.962 31.807 46.9668 31.6962 46.9712 31.5858C46.9717 31.5692 46.9732 31.5526 46.9737 31.536C48.3033 29.307 48.8326 26.7338 48.4615 24.2474ZM25.6245 13.9916C24.3648 13.6278 23.0357 13.307 21.6304 13.0414C21.5962 13.035 21.4917 13.0155 21.4717 12.8768C21.4522 12.7421 21.5406 12.6967 21.5738 12.6791C21.9307 12.4955 22.2954 12.3134 22.6568 12.1385C23.8404 11.5663 25.1548 11.2718 26.4717 11.2718C27.0005 11.2718 27.5293 11.3192 28.0508 11.4154C29.044 11.5985 30.0767 11.8031 31.125 12.058C29.1846 12.4906 27.3409 13.139 25.6245 13.9916ZM37.3208 12.2235C37.0708 12.1078 36.8194 11.994 36.5635 11.8846C36.5684 11.8842 36.5733 11.8837 36.5782 11.8832C35.8291 11.5682 35.1236 11.3016 34.4942 11.0834C32.3951 10.3544 30.3204 9.92468 28.3907 9.56921C27.2046 9.35095 26.0122 9.33533 24.8492 9.51355C24.6714 8.5575 24.75 7.55554 25.1011 6.55017C26.0494 3.83435 28.7369 1.95837 31.793 1.87732C34.816 1.95789 37.4737 3.81091 38.4107 6.49402C39.1114 8.50085 38.6997 10.5663 37.3208 12.2235ZM44.8057 34.326C44.6548 35.4818 44.4991 36.6771 44.4781 37.9183C44.4244 41.055 43.0162 44.1337 40.5113 46.5878C38.104 48.9467 34.9278 50.4403 31.7871 50.6932C28.6465 50.4403 25.4707 48.9467 23.063 46.5878C20.5581 44.1337 19.1495 41.055 19.0962 37.9183C19.0855 37.2767 19.0381 36.6473 18.9746 36.0292C25.7813 33.9374 31.2076 31.1981 35.1109 27.8812C35.2735 27.743 35.4341 27.6005 35.5884 27.4574C36.0577 27.0218 36.8077 27.0424 37.2608 27.5028C38.7154 28.9828 40.3316 30.2743 41.8941 31.5238L42.1866 31.7582C43.0586 32.4559 43.9649 33.1088 44.8858 33.7045C44.8594 33.9134 44.8326 34.121 44.8057 34.326ZM43.3594 30.2928L43.066 30.058C41.5464 28.8431 39.9751 27.5868 38.5992 26.1874C37.4414 25.0096 35.5176 24.9618 34.3116 26.0819C34.1773 26.2064 34.0371 26.3304 33.8955 26.451C30.2476 29.5507 25.1543 32.1337 18.7442 34.1361C18.7237 33.9813 18.7037 33.8246 18.6836 33.6678C18.6197 33.1576 18.5616 32.6605 18.5181 32.1542C18.5064 32.017 18.4981 31.8798 18.4903 31.7426C18.4917 31.7396 18.4942 31.7367 18.4952 31.7333C18.5035 31.7157 19.3204 29.9178 21.5445 27.5072C23.5996 25.2792 27.312 22.057 33.3243 19.3568C33.3516 19.3446 33.3794 19.3334 33.4068 19.3212C36.3555 21.0453 38.5752 22.9423 40.1729 24.598C43.3614 27.9022 44.7701 30.9037 45.0552 31.559C44.4795 31.1586 43.9121 30.7352 43.3594 30.2928ZM46.0118 29.2772C45.2188 27.8475 43.8179 25.6869 41.5933 23.3666C40.1089 21.8182 38.1177 20.0726 35.5454 18.4281C37.3326 17.7294 39.2203 17.1093 41.1856 16.5746C43.7935 18.4764 46.0923 21.0848 46.605 24.5243C46.8428 26.1161 46.6324 27.7562 46.0118 29.2772Z" fill="#EEBD43"/>
</svg>
