<svg width="64" height="64" viewBox="0 0 64 64" fill="none" xmlns="http://www.w3.org/2000/svg">
<path d="M19 23.816V26H21V23.816C21.4182 23.6666 21.7981 23.4262 22.1122 23.1122C22.4262 22.7981 22.6666 22.4182 22.816 22H25V20H22.816C22.6666 19.5818 22.4262 19.2019 22.1122 18.8878C21.7981 18.5738 21.4182 18.3334 21 18.184V16H19V18.184C18.5818 18.3334 18.2019 18.5738 17.8878 18.8878C17.5738 19.2019 17.3334 19.5818 17.184 20H15V22H17.184C17.3334 22.4182 17.5738 22.7981 17.8878 23.1122C18.2019 23.4262 18.5818 23.6666 19 23.816ZM20 20C20.1978 20 20.3911 20.0586 20.5556 20.1685C20.72 20.2784 20.8482 20.4346 20.9239 20.6173C20.9996 20.8 21.0194 21.0011 20.9808 21.1951C20.9422 21.3891 20.847 21.5673 20.7071 21.7071C20.5673 21.847 20.3891 21.9422 20.1951 21.9808C20.0011 22.0194 19.8 21.9996 19.6173 21.9239C19.4346 21.8482 19.2784 21.72 19.1685 21.5556C19.0586 21.3911 19 21.1978 19 21C19 20.7348 19.1054 20.4804 19.2929 20.2929C19.4804 20.1054 19.7348 20 20 20Z" fill="#EEBD43"/>
<path d="M33 23.816V26H35V23.816C35.4182 23.6666 35.7981 23.4262 36.1122 23.1122C36.4262 22.7981 36.6666 22.4182 36.816 22H39V20H36.816C36.6666 19.5818 36.4262 19.2019 36.1122 18.8878C35.7981 18.5738 35.4182 18.3334 35 18.184V16H33V18.184C32.5818 18.3334 32.2019 18.5738 31.8878 18.8878C31.5738 19.2019 31.3334 19.5818 31.184 20H29V22H31.184C31.3334 22.4182 31.5738 22.7981 31.8878 23.1122C32.2019 23.4262 32.5818 23.6666 33 23.816ZM34 20C34.1978 20 34.3911 20.0586 34.5556 20.1685C34.72 20.2784 34.8482 20.4346 34.9239 20.6173C34.9996 20.8 35.0194 21.0011 34.9808 21.1951C34.9422 21.3891 34.847 21.5673 34.7071 21.7071C34.5673 21.847 34.3891 21.9422 34.1951 21.9808C34.0011 22.0194 33.8 21.9996 33.6173 21.9239C33.4346 21.8482 33.2784 21.72 33.1685 21.5556C33.0586 21.3911 33 21.1978 33 21C33 20.7348 33.1054 20.4804 33.2929 20.2929C33.4804 20.1054 33.7348 20 34 20Z" fill="#EEBD43"/>
<path d="M19 34.816V37H21V34.816C21.4182 34.6666 21.7981 34.4262 22.1122 34.1122C22.4262 33.7981 22.6666 33.4182 22.816 33H25V31H22.816C22.6666 30.5818 22.4262 30.2019 22.1122 29.8878C21.7981 29.5738 21.4182 29.3334 21 29.184V27H19V29.184C18.5818 29.3334 18.2019 29.5738 17.8878 29.8878C17.5738 30.2019 17.3334 30.5818 17.184 31H15V33H17.184C17.3334 33.4182 17.5738 33.7981 17.8878 34.1122C18.2019 34.4262 18.5818 34.6666 19 34.816ZM20 31C20.1978 31 20.3911 31.0586 20.5556 31.1685C20.72 31.2784 20.8482 31.4346 20.9239 31.6173C20.9996 31.8 21.0194 32.0011 20.9808 32.1951C20.9422 32.3891 20.847 32.5673 20.7071 32.7071C20.5673 32.847 20.3891 32.9422 20.1951 32.9808C20.0011 33.0194 19.8 32.9996 19.6173 32.9239C19.4346 32.8482 19.2784 32.72 19.1685 32.5556C19.0586 32.3911 19 32.1978 19 32C19 31.7348 19.1054 31.4804 19.2929 31.2929C19.4804 31.1054 19.7348 31 20 31Z" fill="#EEBD43"/>
<path d="M33 34.816V37H35V34.816C35.4182 34.6666 35.7981 34.4262 36.1122 34.1122C36.4262 33.7981 36.6666 33.4182 36.816 33H39V31H36.816C36.6666 30.5818 36.4262 30.2019 36.1122 29.8878C35.7981 29.5738 35.4182 29.3334 35 29.184V27H33V29.184C32.5818 29.3334 32.2019 29.5738 31.8878 29.8878C31.5738 30.2019 31.3334 30.5818 31.184 31H29V33H31.184C31.3334 33.4182 31.5738 33.7981 31.8878 34.1122C32.2019 34.4262 32.5818 34.6666 33 34.816ZM34 31C34.1978 31 34.3911 31.0586 34.5556 31.1685C34.72 31.2784 34.8482 31.4346 34.9239 31.6173C34.9996 31.8 35.0194 32.0011 34.9808 32.1951C34.9422 32.3891 34.847 32.5673 34.7071 32.7071C34.5673 32.847 34.3891 32.9422 34.1951 32.9808C34.0011 33.0194 33.8 32.9996 33.6173 32.9239C33.4346 32.8482 33.2784 32.72 33.1685 32.5556C33.0586 32.3911 33 32.1978 33 32C33 31.7348 33.1054 31.4804 33.2929 31.2929C33.4804 31.1054 33.7348 31 34 31Z" fill="#EEBD43"/>
<path d="M11 59.9993H62V57.9993H61V54.9993C61 54.7341 60.8946 54.4797 60.7071 54.2922C60.5196 54.1046 60.2652 53.9993 60 53.9993H56V12.9993H61C61.2437 12.9992 61.479 12.9101 61.6616 12.7488C61.8443 12.5875 61.9618 12.3651 61.992 12.1233L62.992 4.12327C63.0096 3.98259 62.997 3.83979 62.9552 3.70433C62.9134 3.56887 62.8433 3.44385 62.7495 3.33756C62.6557 3.23127 62.5403 3.14614 62.4111 3.08781C62.2819 3.02949 62.1418 2.99931 62 2.99927H56V1.99927H54V2.99927H48C47.8582 2.99931 47.7181 3.02949 47.5889 3.08781C47.4597 3.14614 47.3443 3.23127 47.2505 3.33756C47.1567 3.44385 47.0866 3.56887 47.0448 3.70433C47.003 3.83979 46.9904 3.98259 47.008 4.12327L48.008 12.1233C48.0382 12.3651 48.1557 12.5875 48.3384 12.7488C48.521 12.9101 48.7563 12.9992 49 12.9993H54V53.9993H50C49.7348 53.9993 49.4804 54.1046 49.2929 54.2922C49.1054 54.4797 49 54.7341 49 54.9993V57.9993H46.847L46.01 52.9783L47.9 37.8993C48.8598 37.6805 49.7052 37.1156 50.2745 36.3125C50.8438 35.5094 51.097 34.5246 50.9855 33.5465C50.8741 32.5684 50.4059 31.6658 49.6706 31.0113C48.9353 30.3568 47.9844 29.9965 47 29.9993H46.125L46.196 29.3933C46.5143 26.6834 46.2553 23.9368 45.436 21.3343C44.6166 18.7317 43.2556 16.3321 41.4422 14.2933C39.6289 12.2545 37.4045 10.6227 34.9153 9.50533C32.4261 8.38793 29.7285 7.81024 27 7.81024C24.2715 7.81024 21.5739 8.38793 19.0847 9.50533C16.5955 10.6227 14.3711 12.2545 12.5578 14.2933C10.7445 16.3321 9.38336 18.7317 8.56402 21.3343C7.74468 23.9368 7.48566 26.6834 7.804 29.3933L7.875 29.9993H7C6.0156 29.9965 5.06475 30.3568 4.32941 31.0113C3.59407 31.6658 3.12588 32.5684 3.01446 33.5465C2.90303 34.5246 3.15618 35.5094 3.72547 36.3125C4.29476 37.1156 5.1402 37.6805 6.1 37.8993L7.99 52.9783L7.153 57.9993H2V59.9993H11ZM49.133 4.99927H60.867L60.117 10.9993H49.883L49.133 4.99927ZM39.382 53.9993L41.382 57.9993H12.618L14.618 53.9993H39.382ZM51 55.9993H59V57.9993H51V55.9993ZM43.618 57.9993L41.618 53.9993H44.153L44.819 57.9993H43.618ZM9.79 29.1593C9.50375 26.7293 9.73533 24.2662 10.4695 21.9322C11.2037 19.5982 12.4238 17.4461 14.0496 15.6175C15.6754 13.789 17.67 12.3255 19.9021 11.3233C22.1342 10.3211 24.5532 9.80292 27 9.80292C29.4468 9.80292 31.8658 10.3211 34.0979 11.3233C36.33 12.3255 38.3246 13.789 39.9504 15.6175C41.5762 17.4461 42.7963 19.5982 43.5305 21.9322C44.2647 24.2662 44.4963 26.7293 44.21 29.1593L44.11 29.9993H43.626C42.6575 30.002 41.7227 30.3548 40.994 30.9928C40.2652 31.6307 39.7918 32.5106 39.661 33.4703L38.925 38.9993H15.075L14.338 33.4713C14.2074 32.5115 13.7341 31.6313 13.0053 30.9932C12.2766 30.355 11.3416 30.002 10.373 29.9993H9.889L9.79 29.1593ZM38 44.9993H16V40.9993H38V44.9993ZM7 35.9993C6.46957 35.9993 5.96086 35.7886 5.58579 35.4135C5.21071 35.0384 5 34.5297 5 33.9993C5 33.4688 5.21071 32.9601 5.58579 32.5851C5.96086 32.21 6.46957 31.9993 7 31.9993H10.373C10.8573 32.0004 11.3249 32.1769 11.6892 32.496C12.0535 32.8151 12.29 33.2553 12.355 33.7353L14.009 46.1353C14.0206 46.1848 14.0363 46.2333 14.056 46.2803C14.068 46.3324 14.0847 46.3832 14.106 46.4323C14.1394 46.4966 14.18 46.557 14.227 46.6123C14.2547 46.6535 14.2858 46.6923 14.32 46.7283C14.3811 46.7804 14.4483 46.825 14.52 46.8613C14.5557 46.8857 14.5927 46.9081 14.631 46.9283C14.7483 46.9753 14.8736 46.9994 15 46.9993H39C39.128 46.9986 39.2547 46.9732 39.373 46.9243C39.4115 46.9041 39.4486 46.8814 39.484 46.8563C39.556 46.821 39.6233 46.7767 39.684 46.7243C39.7182 46.6883 39.7493 46.6495 39.777 46.6083C39.824 46.553 39.8646 46.4926 39.898 46.4283C39.9194 46.379 39.9362 46.3277 39.948 46.2753C39.9678 46.2287 39.9836 46.1805 39.995 46.1313L41.649 33.7313C41.7148 33.2527 41.9511 32.814 42.3145 32.4958C42.6779 32.1776 43.144 32.0013 43.627 31.9993H47C47.5304 31.9993 48.0391 32.21 48.4142 32.5851C48.7893 32.9601 49 33.4688 49 33.9993C49 34.5297 48.7893 35.0384 48.4142 35.4135C48.0391 35.7886 47.5304 35.9993 47 35.9993C46.7563 35.9993 46.521 36.0884 46.3384 36.2497C46.1557 36.411 46.0382 36.6335 46.008 36.8753L44.117 51.9993H9.883L7.992 36.8753C7.96178 36.6335 7.8443 36.411 7.66164 36.2497C7.47897 36.0884 7.24369 35.9993 7 35.9993ZM9.847 53.9993H12.382L10.382 57.9993H9.182L9.847 53.9993Z" fill="#EEBD43"/>
</svg>
