<svg width="20" height="23" viewBox="0 0 20 23" fill="none" xmlns="http://www.w3.org/2000/svg">
<path fill-rule="evenodd" clip-rule="evenodd" d="M10.0001 0.0951538V5.01857H20.0001V22.2505H6.10352e-05V0.0951538H10.0001ZM2.00006 19.7888H4.00006V17.3271H2.00006V19.7888ZM4.00006 14.8654H2.00006V12.4037H4.00006V14.8654ZM2.00006 9.94199H4.00006V7.48028H2.00006V9.94199ZM4.00006 5.01857H2.00006V2.55686H4.00006V5.01857ZM6.00006 19.7888H8.00006V17.3271H6.00006V19.7888ZM8.00006 14.8654H6.00006V12.4037H8.00006V14.8654ZM6.00006 9.94199H8.00006V7.48028H6.00006V9.94199ZM8.00006 5.01857H6.00006V2.55686H8.00006V5.01857ZM18.0001 19.7888V7.48028H10.0001V9.94198H12.0001V12.4037H10.0001V14.8654H12.0001V17.3271H10.0001V19.7888H18.0001ZM16.0001 9.94198H14.0001V12.4037H16.0001V9.94198ZM14.0001 14.8654H16.0001V17.3271H14.0001V14.8654Z" fill="white"/>
</svg>
