<svg width="50" height="40" viewBox="0 0 50 40" fill="none" xmlns="http://www.w3.org/2000/svg">
<path d="M36.25 20.6249C36.25 30.635 28.1352 38.7498 18.125 38.7498C8.11484 38.7498 0 30.635 0 20.6249C0 10.6148 8.11484 2.5 18.125 2.5C28.1352 2.5 36.25 10.6148 36.25 20.6249Z" fill="#EEBD43"/>
<path d="M32.3438 7.89009C32.7752 7.89009 33.125 7.54043 33.125 7.10911C33.125 6.67778 32.7752 6.32812 32.3438 6.32812C31.9123 6.32812 31.5625 6.67778 31.5625 7.10911C31.5625 7.54043 31.9123 7.89009 32.3438 7.89009Z" fill="black"/>
<path d="M27.6562 7.89009C28.0877 7.89009 28.4375 7.54043 28.4375 7.10911C28.4375 6.67778 28.0877 6.32812 27.6562 6.32812C27.2248 6.32812 26.875 6.67778 26.875 7.10911C26.875 7.54043 27.2248 7.89009 27.6562 7.89009Z" fill="black"/>
<path d="M34.6875 20.3906C34.2561 20.3906 33.9062 20.7404 33.9062 21.1719V34.0625C33.9062 36.4318 35.8338 38.3594 38.2031 38.3594C40.5724 38.3594 42.5 36.4318 42.5 34.0625C42.5 32.9148 42.053 31.8357 41.2416 31.0241C40.9364 30.7191 40.4419 30.7191 40.1366 31.0241C39.8316 31.3292 39.8316 31.8239 40.1366 32.1291C40.653 32.6454 40.9375 33.3321 40.9375 34.0625C40.9375 35.5702 39.7109 36.7969 38.2031 36.7969C36.6954 36.7969 35.4688 35.5702 35.4688 34.0625V21.1719C35.4688 20.7404 35.1189 20.3906 34.6875 20.3906Z" fill="black"/>
<path d="M19.8634 31.0241C19.5584 30.7191 19.0636 30.7191 18.7585 31.0241C17.947 31.8357 17.5 32.9147 17.5 34.0625C17.5 36.4318 19.4276 38.3594 21.7969 38.3594C24.1662 38.3594 26.0938 36.4318 26.0938 34.0625V21.1719C26.0938 20.7404 25.744 20.3906 25.3125 20.3906C24.881 20.3906 24.5312 20.7404 24.5312 21.1719V34.0625C24.5312 35.5702 23.3046 36.7969 21.7969 36.7969C20.2891 36.7969 19.0625 35.5702 19.0625 34.0625C19.0625 33.3321 19.347 32.6454 19.8634 32.129C20.1684 31.8239 20.1685 31.3293 19.8634 31.0241Z" fill="black"/>
<path d="M20.625 20.3906C20.1935 20.3906 19.8438 20.7404 19.8438 21.1719V25.8594C19.8438 26.7209 19.1428 27.4219 18.2812 27.4219C17.4197 27.4219 16.7188 26.7209 16.7188 25.8594C16.7188 25.4279 16.369 25.0781 15.9375 25.0781C15.506 25.0781 15.1562 25.4279 15.1562 25.8594C15.1562 27.5825 16.5581 28.9844 18.2812 28.9844C20.0044 28.9844 21.4062 27.5825 21.4062 25.8594V21.1719C21.4062 20.7404 21.0565 20.3906 20.625 20.3906Z" fill="black"/>
<path d="M39.375 20.3906C38.9436 20.3906 38.5938 20.7404 38.5938 21.1719V25.8594C38.5938 27.5825 39.9956 28.9844 41.7188 28.9844C43.4419 28.9844 44.8438 27.5825 44.8438 25.8594C44.8438 25.4279 44.4939 25.0781 44.0625 25.0781C43.6311 25.0781 43.2812 25.4279 43.2812 25.8594C43.2812 26.7209 42.5803 27.4219 41.7188 27.4219C40.8572 27.4219 40.1562 26.7209 40.1562 25.8594V21.1719C40.1562 20.7404 39.8064 20.3906 39.375 20.3906Z" fill="black"/>
<path d="M29.2188 30.5469C29.2188 30.9784 29.5686 31.3281 30 31.3281C30.4314 31.3281 30.7812 30.9784 30.7812 30.5469V21.1719C30.7812 20.7404 30.4314 20.3906 30 20.3906C29.5686 20.3906 29.2188 20.7404 29.2188 21.1719V30.5469Z" fill="black"/>
<path d="M30 17.2651C30.4315 17.2651 30.7812 16.9154 30.7812 16.4841C30.7812 16.0528 30.4315 15.7031 30 15.7031C29.5685 15.7031 29.2188 16.0528 29.2188 16.4841C29.2188 16.9154 29.5685 17.2651 30 17.2651Z" fill="black"/>
<path d="M46.875 1.64014H13.125C11.4019 1.64014 10 3.04201 10 4.76514V16.4839C10 16.9154 10.3498 17.2651 10.7812 17.2651H26.4844C26.9159 17.2651 27.2656 16.9154 27.2656 16.4839C27.2656 16.0524 26.9159 15.7026 26.4844 15.7026H16.25V12.5776H43.75V15.7026H33.5156C33.0842 15.7026 32.7344 16.0524 32.7344 16.4839C32.7344 16.9154 33.0842 17.2651 33.5156 17.2651H49.2188C49.6502 17.2651 50 16.9154 50 16.4839V4.76514C50 3.04201 48.5981 1.64014 46.875 1.64014ZM48.4375 15.7026H45.3125V11.7964C45.3125 11.3649 44.9627 11.0151 44.5312 11.0151H15.4688C15.0373 11.0151 14.6875 11.3649 14.6875 11.7964V15.7026H11.5625V4.76514C11.5625 3.90357 12.2634 3.20264 13.125 3.20264H46.875C47.7366 3.20264 48.4375 3.90357 48.4375 4.76514V15.7026Z" fill="black"/>
</svg>
