<svg width="43" height="40" viewBox="0 0 43 40" fill="none" xmlns="http://www.w3.org/2000/svg">
<path d="M36.25 20.6251C36.25 30.6353 28.1352 38.7502 18.125 38.7502C8.11484 38.7502 0 30.6353 0 20.6251C0 10.6149 8.11484 2.5 18.125 2.5C28.1352 2.5 36.25 10.6149 36.25 20.6251Z" fill="#EEBD43"/>
<path d="M33.9109 0.668027C26.3394 -0.222676 18.66 -0.222676 11.0886 0.668027C10.7526 0.707324 10.4999 0.992012 10.4999 1.33006V33.3353C10.4999 33.6733 10.7526 33.9579 11.0886 33.9973C14.8747 34.4426 18.6874 34.6654 22.5001 34.6654C26.3129 34.6654 30.1256 34.4427 33.9117 33.9973C34.2477 33.9579 34.5004 33.6733 34.5004 33.3353V1.32998C34.5003 0.992012 34.2476 0.707324 33.9109 0.668027ZM33.1669 32.7405C26.0855 33.5299 18.9147 33.5299 11.8333 32.7405V1.92467C18.9148 1.13529 26.0855 1.13529 33.1669 1.92467V32.7405Z" fill="black"/>
<path d="M22.5 26.6663C21.0293 26.6663 19.8333 27.8623 19.8333 29.333C19.8333 30.8037 21.0293 31.9997 22.5 31.9997C23.9707 31.9997 25.1668 30.8037 25.1668 29.333C25.1668 27.8623 23.9707 26.6663 22.5 26.6663ZM22.5 30.6663C21.7647 30.6663 21.1667 30.0682 21.1667 29.3329C21.1667 28.5976 21.7647 27.9995 22.5 27.9995C23.2353 27.9995 23.8334 28.5976 23.8334 29.3329C23.8334 30.0682 23.2353 30.6663 22.5 30.6663Z" fill="black"/>
<path d="M25.8334 5.32983H19.1666C18.064 5.32983 17.1666 6.22718 17.1666 7.32983V9.99655C17.1666 11.0992 18.064 11.9965 19.1666 11.9965H25.8334C26.9361 11.9965 27.8334 11.0992 27.8334 9.99655V7.32991C27.8335 6.22718 26.9362 5.32983 25.8334 5.32983ZM26.5001 9.99655C26.5001 10.3639 26.2008 10.6632 25.8334 10.6632H19.1666C18.7993 10.6632 18.4999 10.3639 18.4999 9.99655V7.32991C18.4999 6.96257 18.7993 6.66327 19.1666 6.66327H25.8334C26.2008 6.66327 26.5001 6.96257 26.5001 7.32991V9.99655Z" fill="black"/>
<path d="M24.9002 8.13022C24.6055 7.90889 24.1875 7.96952 23.9668 8.26358L21.9668 10.9303C21.7461 11.225 21.8055 11.643 22.1002 11.8637C22.2202 11.9537 22.3609 11.997 22.4995 11.997C22.7022 11.997 22.9029 11.905 23.0335 11.7304L25.0335 9.06366C25.2542 8.76889 25.1948 8.35085 24.9002 8.13022Z" fill="black"/>
<path d="M19.1666 35.9998H16.4999C16.1318 35.9998 15.8331 36.2984 15.8331 36.6664V39.3331C15.8331 39.7011 16.1318 39.9998 16.4999 39.9998H19.1666C19.5346 39.9998 19.8332 39.7011 19.8332 39.3331V36.6664C19.8332 36.2984 19.5346 35.9998 19.1666 35.9998ZM18.4999 38.6665H17.1665V37.3331H18.4999V38.6665Z" fill="black"/>
<path d="M28.5 35.9998H25.8333C25.4654 35.9998 25.1667 36.2984 25.1667 36.6664V39.3331C25.1667 39.7011 25.4654 39.9998 25.8333 39.9998H28.5C28.8681 39.9998 29.1668 39.7011 29.1668 39.3331V36.6664C29.1668 36.2984 28.8681 35.9998 28.5 35.9998ZM27.8334 38.6665H26.5V37.3331H27.8334V38.6665Z" fill="black"/>
<path d="M33.8336 23.9998H11.1665C10.7985 23.9998 10.4999 24.2984 10.4999 24.6665V33.3353C10.4999 33.6733 10.7526 33.958 11.0886 33.9973C14.8747 34.4426 18.6874 34.6654 22.5001 34.6654C26.3129 34.6654 30.1256 34.4427 33.9117 33.9973C34.2477 33.958 34.5004 33.6734 34.5004 33.3353V24.6664C34.5003 24.2984 34.2016 23.9998 33.8336 23.9998ZM33.1669 32.7405C26.0855 33.5299 18.9147 33.5299 11.8333 32.7405V25.3331H33.1669V32.7405Z" fill="black"/>
<path d="M20.5134 33.304C18.7674 33.268 16.9854 33.1813 15.2167 33.0474C15.0314 33.0321 14.8493 33.0974 14.7133 33.2234C14.5773 33.3494 14.5 33.5267 14.5 33.7121V36.6667C14.5 37.0347 14.7986 37.3335 15.1667 37.3335H20.5001C20.8681 37.3335 21.1668 37.0348 21.1661 36.6667V33.9707C21.1661 33.608 20.8761 33.3113 20.5134 33.304ZM19.8334 36H15.8333V34.4287C17.17 34.5207 18.51 34.5847 19.8334 34.6214V36Z" fill="black"/>
<path d="M30.2863 33.2233C30.151 33.0973 29.971 33.0333 29.7829 33.0473C28.0136 33.1813 26.2316 33.268 24.4862 33.3039C24.1236 33.3113 23.8336 33.6079 23.8336 33.9707V36.6667C23.8336 37.0346 24.1323 37.3334 24.5002 37.3334H29.8336C30.2017 37.3334 30.5004 37.0347 30.4997 36.6668V33.7121C30.4996 33.5267 30.4222 33.3493 30.2863 33.2233ZM29.1669 36H25.1669V34.6214C26.4902 34.5847 27.8302 34.5207 29.1669 34.4287V36Z" fill="black"/>
</svg>
