<svg width="50" height="40" viewBox="0 0 50 40" fill="none" xmlns="http://www.w3.org/2000/svg">
<path d="M36.25 21.875C36.25 31.8852 28.1352 40 18.125 40C8.11484 40 0 31.8852 0 21.875C0 11.8648 8.11484 3.75 18.125 3.75C28.1352 3.75 36.25 11.8648 36.25 21.875Z" fill="#EEBD43"/>
<path d="M40.3401 9.35947C37.4376 6.53822 33.6133 5.04744 29.5708 5.16244C26.0179 5.26338 22.4008 6.90299 19.6467 9.66088C16.8926 12.4188 15.2579 16.0382 15.1619 19.5913C15.1054 21.6799 15.4763 23.7106 16.2642 25.627C16.6148 26.4801 17.4554 27.0313 18.4056 27.0313H41.5968C42.5455 27.0313 43.3848 26.481 43.7351 25.6292C44.4708 23.8405 44.8438 21.9466 44.8438 20C44.8438 15.9613 43.2443 12.1824 40.3401 9.35947ZM42.2901 25.0348C42.1816 25.2985 41.9096 25.4688 41.5968 25.4688H18.4056C18.0915 25.4688 17.8182 25.2977 17.7094 25.0329C17.0048 23.3194 16.6733 21.5028 16.7238 19.6335C16.9015 13.0638 23.0461 6.9108 29.6153 6.72424C29.7451 6.72056 29.8743 6.71869 30.0036 6.71869C33.476 6.71869 36.7469 8.04588 39.2511 10.4799C41.85 13.0061 43.2813 16.3871 43.2813 20C43.2813 21.7417 42.9478 23.4356 42.2901 25.0348Z" fill="black"/>
<path d="M20.625 19.2188H19.0625C18.6311 19.2188 18.2812 19.5684 18.2812 19.9997C18.2812 20.4311 18.6311 20.7807 19.0625 20.7807H20.625C21.0564 20.7807 21.4062 20.4311 21.4062 19.9997C21.4062 19.5684 21.0564 19.2188 20.625 19.2188Z" fill="black"/>
<path d="M38.5938 19.9997C38.5938 20.4311 38.9436 20.7807 39.375 20.7807H40.9375C41.3689 20.7807 41.7188 20.4311 41.7188 19.9997C41.7188 19.5684 41.3689 19.2188 40.9375 19.2188H39.375C38.9436 19.2188 38.5938 19.5684 38.5938 19.9997Z" fill="black"/>
<path d="M30 11.4062C30.4314 11.4062 30.7812 11.0565 30.7812 10.625V9.0625C30.7812 8.63102 30.4314 8.28125 30 8.28125C29.5686 8.28125 29.2188 8.63102 29.2188 9.0625V10.625C29.2188 11.0565 29.5686 11.4062 30 11.4062Z" fill="black"/>
<path d="M25.2078 10.1373C24.9921 9.76373 24.5143 9.63561 24.1406 9.85139C23.7669 10.0671 23.6389 10.5449 23.8546 10.9186L24.6359 12.2718C24.7807 12.5224 25.0432 12.6626 25.3132 12.6626C25.4457 12.6626 25.5801 12.6288 25.7031 12.5577C26.0768 12.342 26.2048 11.8642 25.989 11.4905L25.2078 10.1373Z" fill="black"/>
<path d="M22.2715 14.6355L20.9184 13.8545C20.5446 13.6388 20.067 13.7668 19.8512 14.1404C19.6354 14.5139 19.7635 14.9916 20.1371 15.2072L21.4902 15.9882C21.8627 16.2031 22.341 16.0771 22.5574 15.7023C22.7732 15.3288 22.6452 14.8512 22.2715 14.6355Z" fill="black"/>
<path d="M39.0815 13.8548L32.9216 17.4112C32.2055 16.6039 31.1615 16.0939 30 16.0939C27.8461 16.0939 26.0938 17.8462 26.0938 20.0001C26.0938 22.154 27.8461 23.9064 30 23.9064C32.1539 23.9064 33.9063 22.154 33.9063 20.0001C33.9063 19.5679 33.8346 19.1524 33.7045 18.7635L39.8628 15.208C40.2364 14.9923 40.3645 14.5145 40.1487 14.1408C39.933 13.7671 39.4552 13.639 39.0815 13.8548ZM32.3438 20.0001C32.3438 21.2925 31.2924 22.3439 30 22.3439C28.7077 22.3439 27.6563 21.2925 27.6563 20.0001C27.6563 18.7078 28.7077 17.6564 30 17.6564C30.5804 17.6564 31.1117 17.8689 31.5216 18.2196L29.6094 19.3236C29.2357 19.5393 29.1077 20.0171 29.3234 20.3907C29.4682 20.6414 29.7307 20.7815 30.0008 20.7815C30.1333 20.7815 30.2677 20.7478 30.3906 20.6767L32.3039 19.5721C32.3296 19.711 32.3438 19.8539 32.3438 20.0001Z" fill="black"/>
<path d="M34.2968 12.5577C34.4198 12.6287 34.5541 12.6626 34.6866 12.6626C34.9566 12.6626 35.2193 12.5224 35.364 12.2718L36.1452 10.9186C36.361 10.5449 36.233 10.0671 35.8593 9.85139C35.4855 9.63561 35.0077 9.76373 34.7921 10.1373L34.0109 11.4905C33.7951 11.8642 33.9231 12.342 34.2968 12.5577Z" fill="black"/>
<path d="M33.125 30.1562H26.875C25.5827 30.1562 24.5312 31.2077 24.5312 32.5C24.5312 33.7923 25.5827 34.8438 26.875 34.8438H33.125C34.4173 34.8438 35.4688 33.7923 35.4688 32.5C35.4688 31.2077 34.4173 30.1562 33.125 30.1562Z" fill="black"/>
<path d="M44.1422 5.85789C40.3647 2.08039 35.3423 0 30 0C24.6577 0 19.6353 2.08039 15.8578 5.85789C12.0804 9.63539 10 14.6578 10 20C10 25.3422 12.0804 30.3646 15.8578 34.1421C19.6353 37.9196 24.6577 40 30 40C35.3423 40 40.3647 37.9196 44.1422 34.1421C47.9196 30.3646 50 25.3422 50 20C50 14.6578 47.9196 9.63539 44.1422 5.85789ZM43.0373 33.0373C39.5549 36.5197 34.9248 38.4375 30 38.4375C25.0752 38.4375 20.4451 36.5197 16.9627 33.0373C13.4803 29.5548 11.5625 24.9248 11.5625 20C11.5625 15.0752 13.4803 10.4452 16.9627 6.96273C20.4451 3.48031 25.0752 1.5625 30 1.5625C34.9248 1.5625 39.5549 3.48031 43.0373 6.96273C46.5197 10.4452 48.4375 15.0752 48.4375 20C48.4375 24.9248 46.5197 29.5548 43.0373 33.0373Z" fill="black"/>
</svg>
