<svg width="50" height="40" viewBox="0 0 50 40" fill="none" xmlns="http://www.w3.org/2000/svg">
<path d="M40 20C40 31.0457 31.0457 40 20 40C8.95431 40 0 31.0457 0 20C0 8.95431 8.95431 0 20 0C31.0457 0 40 8.95431 40 20Z" fill="#EEBD43"/>
<path d="M48.7891 1.875H39.8356C39.6179 0.806484 38.6709 0 37.5391 0H24.7266C21.4957 0 18.8672 2.62852 18.8672 5.85938V8.82812H18.3984C13.7891 8.82812 10.0391 12.5781 10.0391 17.1875C10.0391 21.7969 13.7891 25.5469 18.3984 25.5469H22.7734C26.0905 25.5469 28.7891 28.2455 28.7891 31.5625C28.7891 34.9227 26.0905 37.6562 22.7734 37.6562H19.9609C19.3138 37.6562 18.7891 38.1809 18.7891 38.8281C18.7891 39.4753 19.3138 40 19.9609 40H22.7734C27.3828 40 31.1328 36.215 31.1328 31.5625C31.1328 26.9531 27.3828 23.2031 22.7734 23.2031H18.3984C15.0814 23.2031 12.3828 20.5045 12.3828 17.1875C12.3828 13.8705 15.0814 11.1719 18.3984 11.1719H18.8672V14.0625C18.8672 17.2934 21.4957 19.9219 24.7266 19.9219H37.5391C38.6709 19.9219 39.6179 19.1154 39.8356 18.0469H48.7891C49.4362 18.0469 49.9609 17.5222 49.9609 16.875V3.04688C49.9609 2.39969 49.4362 1.875 48.7891 1.875ZM37.5391 17.5781H24.7266C22.788 17.5781 21.2109 16.001 21.2109 14.0625V5.85938C21.2109 3.92086 22.788 2.34375 24.7266 2.34375H37.5391V17.5781ZM47.6172 15.7031H39.8828V4.21875H47.6172V15.7031Z" fill="#333333"/>
<path d="M42.4609 8.59375H44.3359C44.9831 8.59375 45.5078 8.06906 45.5078 7.42188C45.5078 6.77469 44.9831 6.25 44.3359 6.25H42.4609C41.8137 6.25 41.2891 6.77469 41.2891 7.42188C41.2891 8.06906 41.8137 8.59375 42.4609 8.59375Z" fill="#333333"/>
<path d="M42.4609 13.6719H44.3359C44.9831 13.6719 45.5078 13.1472 45.5078 12.5C45.5078 11.8528 44.9831 11.3281 44.3359 11.3281H42.4609C41.8137 11.3281 41.2891 11.8528 41.2891 12.5C41.2891 13.1472 41.8137 13.6719 42.4609 13.6719Z" fill="#333333"/>
<path d="M33.0859 8.67188C33.7331 8.67188 34.2578 8.14719 34.2578 7.5C34.2578 6.85281 33.7331 6.32812 33.0859 6.32812H30.5859C30.142 6.32812 29.7363 6.57891 29.5377 6.97594L27.3616 11.3281H24.3359C23.6887 11.3281 23.1641 11.8528 23.1641 12.5C23.1641 13.1472 23.6887 13.6719 24.3359 13.6719H33.0859C33.7331 13.6719 34.2578 13.1472 34.2578 12.5C34.2578 11.8528 33.7331 11.3281 33.0859 11.3281H29.9821L31.3102 8.67188H33.0859Z" fill="#333333"/>
</svg>
