<svg width="50" height="40" viewBox="0 0 50 40" fill="none" xmlns="http://www.w3.org/2000/svg">
<path d="M36.25 20.6249C36.25 30.6351 28.1352 38.75 18.125 38.75C8.11484 38.75 0 30.6351 0 20.6249C0 10.6146 8.11484 2.49976 18.125 2.49976C28.1352 2.49976 36.25 10.6146 36.25 20.6249Z" fill="#EEBD43"/>
<g clip-path="url(#clip0)">
<path d="M47.3332 0.000988963H12.6666C11.1938 0.000988963 10 1.19514 10 2.6676C10 4.14038 11.1938 5.33452 12.6666 5.33452V38.001C12.6678 39.1051 13.5626 39.9996 14.6667 40.0008H43.9998C45.1039 39.9996 45.9987 39.1051 45.9999 38.001V5.33452H47.3332V6.00102C47.3332 6.36937 47.6317 6.66783 47.9997 6.66783C48.3681 6.66783 48.6665 6.36937 48.6665 6.00102V4.96343C49.7118 4.36254 50.2214 3.1336 49.9086 1.96936C49.5958 0.805124 48.5387 -0.00267313 47.3332 0.000988963ZM11.3333 2.6676C11.3333 1.93122 11.9302 1.3343 12.6666 1.3343C13.403 1.3343 13.9999 1.93122 13.9999 2.6676C13.9999 3.40399 13.403 4.00122 12.6666 4.00122C11.9305 4.0003 11.3339 3.40368 11.3333 2.6676ZM44.6666 38.001C44.666 38.369 44.3678 38.6672 43.9998 38.6675H14.6667C14.2987 38.6672 14.0005 38.369 13.9999 38.001V5.33452H15.3332V14.0012C15.3332 14.3692 15.6317 14.6677 16 14.6677C16.3681 14.6677 16.6665 14.3692 16.6665 14.0012V5.33452H17.9998V10.6678C17.9998 11.0358 18.2983 11.3343 18.6667 11.3343C19.0347 11.3343 19.3332 11.0358 19.3332 10.6678V5.33452H20.6668V8.00114C20.6668 8.36918 20.9652 8.66764 21.3333 8.66764C21.7016 8.66764 22.0001 8.36918 22.0001 8.00114V5.33452H44.6666V38.001ZM47.3332 4.00122H14.9624C15.2026 3.59747 15.3305 3.13727 15.3332 2.6676C15.3305 2.19825 15.2026 1.73774 14.9624 1.3343H47.3332C48.0696 1.3343 48.6665 1.93122 48.6665 2.6676C48.6665 3.40399 48.0696 4.00122 47.3332 4.00122Z" fill="black"/>
<path d="M16.0001 36C15.6317 36 15.3333 36.2984 15.3333 36.6666C15.3333 37.0345 15.6317 37.3328 16.0001 37.3328H42.6665C43.0349 37.3328 43.3333 37.0345 43.3333 36.6666C43.3333 36.2984 43.0349 36 42.6665 36H16.0001Z" fill="black"/>
<path d="M47.9997 12.0002C48.368 12.0002 48.6665 11.7017 48.6665 11.3334V8.66675C48.6665 8.29871 48.368 8.00024 47.9997 8.00024C47.6317 8.00024 47.3332 8.29871 47.3332 8.66675V11.3334C47.3332 11.7017 47.6317 12.0002 47.9997 12.0002Z" fill="black"/>
<path d="M47.3332 16.6669C47.3332 17.035 47.6317 17.3334 47.9997 17.3334C48.368 17.3334 48.6665 17.035 48.6665 16.6669V14.0003C48.6665 13.632 48.368 13.3335 47.9997 13.3335C47.6317 13.3335 47.3332 13.632 47.3332 14.0003V16.6669Z" fill="black"/>
<path d="M47.3332 22.0002C47.3332 22.3682 47.6317 22.6667 47.9997 22.6667C48.368 22.6667 48.6665 22.3682 48.6665 22.0002V19.3336C48.6665 18.9652 48.368 18.6667 47.9997 18.6667C47.6317 18.6667 47.3332 18.9652 47.3332 19.3336V22.0002Z" fill="black"/>
<path d="M47.3332 27.3334C47.3332 27.7017 47.6317 28.0002 47.9997 28.0002C48.368 28.0002 48.6665 27.7017 48.6665 27.3334V24.6667C48.6665 24.2987 48.368 24.0002 47.9997 24.0002C47.6317 24.0002 47.3332 24.2987 47.3332 24.6667V27.3334Z" fill="black"/>
<path d="M47.3332 32.6666C47.3332 33.035 47.6317 33.3334 47.9997 33.3334C48.368 33.3334 48.6665 33.035 48.6665 32.6666V30C48.6665 29.632 48.368 29.3335 47.9997 29.3335C47.6317 29.3335 47.3332 29.632 47.3332 30V32.6666Z" fill="black"/>
<path d="M16.0001 18.6666C16.3681 18.6666 16.6666 18.3682 16.6666 18.0001V16.6668C16.6666 16.2985 16.3681 16 16.0001 16C15.6317 16 15.3333 16.2985 15.3333 16.6668V18.0001C15.3333 18.3682 15.6317 18.6666 16.0001 18.6666Z" fill="black"/>
</g>
<defs>
<clipPath id="clip0">
<rect width="40" height="40" fill="white" transform="translate(10)"/>
</clipPath>
</defs>
</svg>
