<svg width="50" height="40" viewBox="0 0 50 40" fill="none" xmlns="http://www.w3.org/2000/svg">
<path d="M40 20C40 31.0457 31.0457 40 20 40C8.95431 40 0 31.0457 0 20C0 8.95431 8.95431 0 20 0C31.0457 0 40 8.95431 40 20Z" fill="#EEBD43"/>
<path d="M33.708 0.376671C32.4619 -0.207079 31.031 -0.0223134 29.9738 0.858546L20.1018 9.08527H13.5084C11.5739 9.08527 10 10.6592 10 12.5937V27.4065C10 29.341 11.5739 30.915 13.5084 30.915H20.1018L29.9739 39.1417C31.0321 40.0235 32.463 40.2067 33.7081 39.6236C34.9542 39.0399 35.7284 37.8225 35.7284 36.4464V3.55378C35.7283 2.17769 34.9541 0.960265 33.708 0.376671ZM19.3557 28.5915H13.5084C12.8636 28.5915 12.339 28.0513 12.339 27.4064V12.5937C12.339 11.9489 12.8636 11.4242 13.5084 11.4242H19.3558V28.5915H19.3557ZM33.3894 36.4464C33.3894 37.1364 32.874 37.4314 32.7159 37.5053C32.558 37.5794 32.0013 37.7865 31.4713 37.3446L21.6947 29.1976V10.8025L31.4712 2.65542C32.0012 2.2137 32.5579 2.42073 32.7159 2.49472C32.8738 2.5687 33.3893 2.8637 33.3893 3.55378V36.4464H33.3894Z" fill="black"/>
<path d="M39.3363 15.6386C38.9777 15.1013 38.2516 14.9565 37.7144 15.3151C37.1771 15.6737 37.0323 16.3998 37.3909 16.9369C38.6009 18.7501 38.6004 21.0943 37.3896 22.9091C37.0311 23.4464 37.1762 24.1726 37.7134 24.531C38.2508 24.8896 38.9769 24.7444 39.3352 24.2072C41.0722 21.6037 41.0726 18.2403 39.3363 15.6386Z" fill="black"/>
<path d="M47.1223 10.4497L46.5981 9.66281C46.2399 9.12523 45.514 8.97984 44.9764 9.33797C44.4388 9.69609 44.2934 10.4221 44.6516 10.9596L45.1761 11.747C48.4881 16.7127 48.4876 23.1312 45.1748 28.0987L44.6517 28.8833C44.2934 29.4207 44.4388 30.1468 44.9761 30.505C45.5134 30.8632 46.2395 30.718 46.5978 30.1806L47.1208 29.3962C50.9592 23.6405 50.9596 16.2034 47.1223 10.4497Z" fill="black"/>
<path d="M43.2292 13.0436L42.7045 12.2565C42.3462 11.719 41.6201 11.5739 41.0827 11.9322C40.5453 12.2904 40.4002 13.0165 40.7585 13.5539L41.2831 14.341C43.5433 17.7313 43.5433 22.1125 41.2831 25.5029L40.7584 26.29C40.4 26.8275 40.5453 27.5536 41.0827 27.9118C41.6202 28.2701 42.3463 28.1247 42.7044 27.5875L43.2292 26.8004C46.0149 22.6218 46.0149 17.222 43.2292 13.0436Z" fill="black"/>
</svg>
