<svg width="18" height="21" viewBox="0 0 18 21" fill="none" xmlns="http://www.w3.org/2000/svg">
<path fill-rule="evenodd" clip-rule="evenodd" d="M13.43 13.4186C14.55 13.8285 15.75 14.05 17 14.05C17.55 14.05 18 14.5485 18 15.1578V19.035C18 19.6443 17.55 20.1428 17 20.1428C7.61 20.1428 0 11.7126 0 1.31071C0 0.701437 0.45 0.202942 1 0.202942H4.5C5.05 0.202942 5.5 0.701437 5.5 1.31071C5.5 2.69542 5.7 4.02474 6.07 5.26544C6.18 5.65316 6.1 6.08519 5.82 6.37321L3.62 8.82137C5.06 11.9674 7.38 14.5264 10.21 16.1216L12.41 13.6845C12.61 13.474 12.86 13.3632 13.12 13.3632C13.22 13.3632 13.33 13.3854 13.43 13.4186ZM16 10.1728H18C18 4.66724 13.97 0.202942 9 0.202942V2.41848C12.87 2.41848 16 5.88579 16 10.1728ZM12 10.1728H14C14 7.11541 11.76 4.63401 9 4.63401V6.84955C10.66 6.84955 12 8.33395 12 10.1728ZM3.53009 2.41848C3.60009 3.39331 3.75009 4.35707 3.9801 5.27652L2.78006 6.61691C2.38004 5.27652 2.12003 3.88073 2.03003 2.41848H3.53009ZM12.2001 17.0521C13.4001 17.5063 14.68 17.7943 16 17.894V16.2213C15.12 16.1548 14.25 15.9886 13.4001 15.7228L12.2001 17.0521Z" fill="white"/>
</svg>
